<svg id="Layer_1" data-name="Layer 1" xmlns="http://www.w3.org/2000/svg" viewBox="0 0 490.18 75.85"><defs><style>.cls-1{fill:#fff;}.cls-2{fill:none;}</style></defs><title>ww</title><path class="cls-1" d="M0,38.61V36.84C1,55,16.92,69.45,36.45,69.45S71.92,55,72.9,36.84c0,.59,0,1.18,0,1.77C73,57.61,56.61,73,36.45,73S0,57.6,0,38.61Z" transform="translate(0 0)"/><path class="cls-1" d="M0,34.38v1.78C1,18,16.92,3.55,36.45,3.55S71.92,18,72.9,36.16c0-.59,0-1.18,0-1.78C73,15.38,56.61,0,36.45,0S0,15.39,0,34.38Z" transform="translate(0 0)"/><path class="cls-1" d="M38.44,66.58H36.8c16.87-.81,30.28-14,30.28-30S53.67,7.35,36.8,6.58h1.64c17.64,0,31.93,13.47,31.93,30.08S56.1,66.58,38.44,66.58Z" transform="translate(0 0)"/><path class="cls-1" d="M34.54,66.58h1.64c-16.86-.81-30.28-14-30.28-30s13.42-29.23,30.28-30H34.54C16.9,6.58,2.61,20.05,2.61,36.66S16.9,66.58,34.54,66.58Z" transform="translate(0 0)"/><path class="cls-1" d="M42.12,27.12H53.29a12.55,12.55,0,0,1,5.26.74,3,3,0,0,1,1.58,2.95,15.13,15.13,0,0,1-.39,3l-3.87,18c-.6,2.8-1.5,4.63-2.73,5.47s-3.42,1.26-6.59,1.26H28.7l1.19-5.65H45.25a6.54,6.54,0,0,0,3-.45c.56-.37,1-1.33,1.33-2.9l3-13.52a10.47,10.47,0,0,0,.24-1.77,1.3,1.3,0,0,0-1.15-1.38,9.25,9.25,0,0,0-2.1-.15H40.94L39.37,40.1h9.68l-1.21,5.67H20.28A12.87,12.87,0,0,1,15,45a3,3,0,0,1-1.58-3,15.13,15.13,0,0,1,.39-3L17.7,21c.6-2.81,1.5-4.63,2.73-5.48s3.42-1.26,6.59-1.26H44.87l-1.19,5.66H28.32a6.54,6.54,0,0,0-3,.45c-.56.36-1,1.33-1.33,2.89L21,36.8a10.47,10.47,0,0,0-.24,1.77A1.29,1.29,0,0,0,21.9,40a9.25,9.25,0,0,0,2.1.15h8.63l1.59-7.33H24.54l1.19-5.65Z" transform="translate(0 0)"/><path class="cls-1" d="M122.59,25.14l-5.37,2.26a16,16,0,0,0-1.68-3.73,11.61,11.61,0,0,0-2.51-2.9,10.85,10.85,0,0,0-3.3-1.89,11.83,11.83,0,0,0-4-.67,11.6,11.6,0,0,0-4.32.78,12.7,12.7,0,0,0-3.51,2.12,14.65,14.65,0,0,0-2.71,3.12A19.48,19.48,0,0,0,93.26,28a24.29,24.29,0,0,0-1.55,8.43A28.32,28.32,0,0,0,92.47,43a19,19,0,0,0,2.45,5.87,13.29,13.29,0,0,0,4.35,4.22,12.19,12.19,0,0,0,6.46,1.62A5,5,0,0,0,109,53.8a4,4,0,0,0,1.16-3.25V36.69h12.45V59.12H119l-2.2-3.55a20.48,20.48,0,0,1-6.63,3.37A25.38,25.38,0,0,1,102.75,60a25.06,25.06,0,0,1-6.39-.82,23.47,23.47,0,0,1-5.69-2.32,23,23,0,0,1-8.45-8.38,23.22,23.22,0,0,1-2.36-5.66,24.9,24.9,0,0,1,0-12.77,23.76,23.76,0,0,1,2.36-5.68,22.59,22.59,0,0,1,3.67-4.75A22.89,22.89,0,0,1,90.67,16a24.3,24.3,0,0,1,5.69-2.32,24.61,24.61,0,0,1,6.39-.81,26.41,26.41,0,0,1,6.26.75,21.7,21.7,0,0,1,5.69,2.27,18.94,18.94,0,0,1,4.64,3.87A17.47,17.47,0,0,1,122.59,25.14Z" transform="translate(0 0)"/><path class="cls-1" d="M164.17,38.35a35.21,35.21,0,0,1-.89,7.65,46.42,46.42,0,0,1-2.5,7.81A42.4,42.4,0,0,1,157,61a31.38,31.38,0,0,1-4.9,5.82l-4-2.16a32.6,32.6,0,0,0,1.6-3.51A35.06,35.06,0,0,0,151,57c.36-1.45.78-3,1.1-4.5s.6-3.08.82-4.6.38-3,.5-4.42.17-2.77.17-4c0-.82,0-1.69-.09-2.62a21.78,21.78,0,0,0-.39-2.79,17.94,17.94,0,0,0-.8-2.68A8,8,0,0,0,151,29.16a6.25,6.25,0,0,0-2-1.57,6,6,0,0,0-2.77-.6,5.44,5.44,0,0,0-2.79.71,8,8,0,0,0-2.17,1.85,11.76,11.76,0,0,0-1.61,2.62,18.91,18.91,0,0,0-1.1,3,22.85,22.85,0,0,0-.8,5.75V59.09H127.12V9.55h10.61V28.22a14.32,14.32,0,0,1,5-4.6A13.46,13.46,0,0,1,149.3,22a16.2,16.2,0,0,1,6.56,1.22,12.5,12.5,0,0,1,4.64,3.4,14.26,14.26,0,0,1,2.76,5.18A22.27,22.27,0,0,1,164.17,38.35Z" transform="translate(0 0)"/><path class="cls-1" d="M204.44,59.12h-10.6V54.77a12,12,0,0,1-4.54,3.81,13.42,13.42,0,0,1-5.82,1.24,17.77,17.77,0,0,1-7.4-1.48,16.08,16.08,0,0,1-5.52-4,17.48,17.48,0,0,1-3.45-6,23.56,23.56,0,0,1,0-14.8,17.48,17.48,0,0,1,3.45-6,16.31,16.31,0,0,1,5.52-4,17.92,17.92,0,0,1,7.4-1.47,12.62,12.62,0,0,1,4,.62A13,13,0,0,1,191,24.46a13.25,13.25,0,0,1,4.69,6.36l4.7-7.88h4.08Zm-10.67-18.2a22.47,22.47,0,0,0-.14-3,23.22,23.22,0,0,0-.48-3.1,15.92,15.92,0,0,0-1-2.94,9.46,9.46,0,0,0-1.57-2.48,7.17,7.17,0,0,0-2.3-1.71,7.53,7.53,0,0,0-3.14-.62,6.73,6.73,0,0,0-5.37,2.37,9.89,9.89,0,0,0-1.55,2.49,16.27,16.27,0,0,0-1,3,23.08,23.08,0,0,0-.48,3.09c-.1,1-.14,2-.14,2.93a21.67,21.67,0,0,0,.14,3,23.12,23.12,0,0,0,.48,3.11,17.08,17.08,0,0,0,1,2.95,9.89,9.89,0,0,0,1.55,2.49,6.81,6.81,0,0,0,5.37,2.37,6.1,6.1,0,0,0,2.9-.68,7.47,7.47,0,0,0,2.23-1.8,11.22,11.22,0,0,0,1.61-2.57,18.79,18.79,0,0,0,1.07-3,25.86,25.86,0,0,0,.82-5.8Z" transform="translate(0 0)"/><path class="cls-1" d="M240.88,26.08l-6,9.89c-.25-.84-.58-1.78-1-2.83a15.79,15.79,0,0,0-1.48-2.93,8.81,8.81,0,0,0-2.1-2.29,4.49,4.49,0,0,0-2.82-.93,4.33,4.33,0,0,0-2.56.76,6.64,6.64,0,0,0-1.84,2,11.77,11.77,0,0,0-1.23,2.73,21.51,21.51,0,0,0-.76,3.07,27.88,27.88,0,0,0-.36,3c-.07,1-.09,1.77-.09,2.46V59.18H210.07V22.88h4.08l4.3,8.44a23.26,23.26,0,0,1,2-3.75,13.79,13.79,0,0,1,2.6-3,11.51,11.51,0,0,1,3.34-1.93,12.36,12.36,0,0,1,4.22-.68,19.18,19.18,0,0,1,2.73.2,15.8,15.8,0,0,1,2.95.69A11.9,11.9,0,0,1,239,24.12,6.09,6.09,0,0,1,240.88,26.08Z" transform="translate(0 0)"/><path class="cls-1" d="M277.79,54.77a25.36,25.36,0,0,1-1.29,8.15,19.91,19.91,0,0,1-3.73,6.7,17.74,17.74,0,0,1-6,4.55,18.74,18.74,0,0,1-8.11,1.68,22.69,22.69,0,0,1-5.06-.57,18.85,18.85,0,0,1-4.83-1.74,16,16,0,0,1-4.08-3,13.26,13.26,0,0,1-2.84-4.25l4.58-1.72A12.31,12.31,0,0,0,248,67.39a11,11,0,0,0,2.21,2.21A10,10,0,0,0,253,71a9.49,9.49,0,0,0,3.17.52,10,10,0,0,0,5.26-1.29,10.18,10.18,0,0,0,3.4-3.35,14.41,14.41,0,0,0,1.85-4.69,25,25,0,0,0,.57-5.32V54.77a12,12,0,0,1-4.54,3.81,13.55,13.55,0,0,1-5.81,1.24,17.63,17.63,0,0,1-7.41-1.48,16.08,16.08,0,0,1-5.52-4,17.48,17.48,0,0,1-3.45-6,23.56,23.56,0,0,1,0-14.8,17.48,17.48,0,0,1,3.45-6,16.31,16.31,0,0,1,5.52-4,18,18,0,0,1,7.41-1.47,12.62,12.62,0,0,1,4,.62,13,13,0,0,1,3.49,1.77A13.25,13.25,0,0,1,269,30.82l4.7-7.88h4.08ZM267.12,40.93a22.47,22.47,0,0,0-.14-3,23.22,23.22,0,0,0-.48-3.1,15.92,15.92,0,0,0-1-2.94,9.46,9.46,0,0,0-1.57-2.48,7.06,7.06,0,0,0-2.3-1.71,7.53,7.53,0,0,0-3.14-.62,7,7,0,0,0-3.05.69,7.21,7.21,0,0,0-2.26,1.73A9.89,9.89,0,0,0,251.63,32a17.08,17.08,0,0,0-1,2.95,23.08,23.08,0,0,0-.48,3.09c-.1,1-.14,2-.14,2.93a21.67,21.67,0,0,0,.14,2.95,23.12,23.12,0,0,0,.48,3.11,18,18,0,0,0,1,2.95,9.89,9.89,0,0,0,1.55,2.49,6.81,6.81,0,0,0,5.37,2.37,6.1,6.1,0,0,0,2.9-.68,7.47,7.47,0,0,0,2.23-1.8,11.22,11.22,0,0,0,1.61-2.57,18.79,18.79,0,0,0,1.07-3,23,23,0,0,0,.6-3.06,23.77,23.77,0,0,0,.16-2.8Z" transform="translate(0 0)"/><path class="cls-1" d="M320.44,38.35a34.54,34.54,0,0,1-.89,7.65,47.62,47.62,0,0,1-2.49,7.81,43.57,43.57,0,0,1-3.83,7.2,31,31,0,0,1-4.9,5.82l-4-2.16a32.6,32.6,0,0,0,1.6-3.51A37,37,0,0,0,307.3,57c.37-1.45.77-3,1.09-4.5s.6-3.08.82-4.6.39-3,.5-4.42.17-2.77.17-4c0-.82,0-1.69-.09-2.62a18.73,18.73,0,0,0-.39-2.79,17.94,17.94,0,0,0-.8-2.68,8,8,0,0,0-1.34-2.26,6.48,6.48,0,0,0-2-1.57,6.09,6.09,0,0,0-2.78-.6,5.44,5.44,0,0,0-2.79.71,8,8,0,0,0-2.17,1.85,11.76,11.76,0,0,0-1.61,2.62,18.91,18.91,0,0,0-1.1,3,22.85,22.85,0,0,0-.8,5.75V59.09H283.44V9.55h10.61V28.22a14.41,14.41,0,0,1,5-4.6A13.46,13.46,0,0,1,305.62,22a16.2,16.2,0,0,1,6.56,1.22,12.5,12.5,0,0,1,4.64,3.4,14.26,14.26,0,0,1,2.76,5.18A22.27,22.27,0,0,1,320.44,38.35Z" transform="translate(0 0)"/><path class="cls-1" d="M360.74,59.12h-10.6V54.77a11.94,11.94,0,0,1-4.53,3.81,13.57,13.57,0,0,1-5.82,1.24,17.78,17.78,0,0,1-7.41-1.48,16.08,16.08,0,0,1-5.52-4,17.64,17.64,0,0,1-3.45-6,23.56,23.56,0,0,1,0-14.8,17.9,17.9,0,0,1,3.45-6,16.31,16.31,0,0,1,5.52-4,18,18,0,0,1,7.41-1.47,12.62,12.62,0,0,1,10.27,5.16,13.43,13.43,0,0,1,1.9,3.59l4.7-7.88h4.08Zm-10.66-18.2c0-.94-.05-1.93-.14-3a25,25,0,0,0-.49-3.1,15.92,15.92,0,0,0-1-2.94,9.46,9.46,0,0,0-1.57-2.48,7.06,7.06,0,0,0-2.3-1.71,7.53,7.53,0,0,0-3.14-.62,6.71,6.71,0,0,0-5.36,2.37,9.32,9.32,0,0,0-1.56,2.49,16.11,16.11,0,0,0-.95,3,23.1,23.1,0,0,0-.49,3.09c-.09,1-.14,2-.14,2.93a21.67,21.67,0,0,0,.14,3,23.14,23.14,0,0,0,.49,3.11,16.11,16.11,0,0,0,.95,2.95,9.32,9.32,0,0,0,1.56,2.49,6.89,6.89,0,0,0,2.25,1.72,7.09,7.09,0,0,0,3.11.65,6.1,6.1,0,0,0,2.9-.68,7.47,7.47,0,0,0,2.23-1.8,10.92,10.92,0,0,0,1.62-2.57,19.78,19.78,0,0,0,1.06-3,26.72,26.72,0,0,0,.83-5.8Z" transform="translate(0 0)"/><path class="cls-1" d="M402.89,59.12h-4.08l-4.7-7.88a13,13,0,0,1-4.69,6.32,12.73,12.73,0,0,1-3.48,1.78,12.91,12.91,0,0,1-4,.62,18,18,0,0,1-7.41-1.47,16.31,16.31,0,0,1-5.52-4,17.9,17.9,0,0,1-3.45-6,23.59,23.59,0,0,1,0-14.81,17.64,17.64,0,0,1,3.45-6,16.31,16.31,0,0,1,5.52-4,17.78,17.78,0,0,1,7.41-1.48,13.74,13.74,0,0,1,5.82,1.23,11.58,11.58,0,0,1,4.53,3.82V9.55h10.6ZM392.23,41.05a23.27,23.27,0,0,0-.19-2.76,22.53,22.53,0,0,0-.6-3,18.79,18.79,0,0,0-1.07-3,10.57,10.57,0,0,0-1.61-2.57,7.47,7.47,0,0,0-2.23-1.8,6.1,6.1,0,0,0-2.9-.68,7.09,7.09,0,0,0-3.11.65,6.89,6.89,0,0,0-2.25,1.72,9.32,9.32,0,0,0-1.56,2.49,17.8,17.8,0,0,0-.95,3,23.1,23.1,0,0,0-.49,3.09c-.09,1-.14,2-.14,2.94s.05,1.89.14,2.93a23.1,23.1,0,0,0,.49,3.09,16.6,16.6,0,0,0,.95,3,9.34,9.34,0,0,0,1.56,2.51,6.71,6.71,0,0,0,5.36,2.37,7.53,7.53,0,0,0,3.14-.62,7.06,7.06,0,0,0,2.3-1.71,9.46,9.46,0,0,0,1.57-2.48,15.77,15.77,0,0,0,1-3,23.52,23.52,0,0,0,.48-3.12C392.18,43,392.23,42,392.23,41.05Z" transform="translate(0 0)"/><path class="cls-1" d="M443.38,34.77a10.31,10.31,0,0,1-.72,4,10.18,10.18,0,0,1-2,3.06,12.17,12.17,0,0,1-2.87,2.23,19.19,19.19,0,0,1-3.49,1.49,23.52,23.52,0,0,1-3.81.83,28.57,28.57,0,0,1-3.81.25A32.8,32.8,0,0,1,422,46.3a27,27,0,0,1-4.52-1,18.6,18.6,0,0,0,1.1,3.94,10.93,10.93,0,0,0,2,3.26,8.82,8.82,0,0,0,3.09,2.21,10.74,10.74,0,0,0,4.34.82,9.74,9.74,0,0,0,3.17-.51A9.87,9.87,0,0,0,434,53.56a10.77,10.77,0,0,0,2.21-2.16,11.05,11.05,0,0,0,1.55-2.79l4.58,1.69a13,13,0,0,1-2.83,4.28,16.23,16.23,0,0,1-4.08,3,19.38,19.38,0,0,1-4.83,1.74,23.31,23.31,0,0,1-5.07.57,20.67,20.67,0,0,1-7.66-1.4,17.55,17.55,0,0,1-10-9.9,20.78,20.78,0,0,1,0-15.24,18.14,18.14,0,0,1,4-6,17.69,17.69,0,0,1,6-3.91,20.46,20.46,0,0,1,7.66-1.39,29.77,29.77,0,0,1,4.11.28,24.74,24.74,0,0,1,4.08.89,20.06,20.06,0,0,1,3.74,1.55,11.49,11.49,0,0,1,3.06,2.4,11.05,11.05,0,0,1,2.07,3.31A11.24,11.24,0,0,1,443.38,34.77Zm-26.13,7.16c1.29.29,2.59.52,3.89.69a32.11,32.11,0,0,0,3.92.25,17.1,17.1,0,0,0,3.84-.4A8.5,8.5,0,0,0,432,41.16a6.42,6.42,0,0,0,2-2.47,8.67,8.67,0,0,0,.75-3.82,11.14,11.14,0,0,0-.5-3.39,7.06,7.06,0,0,0-1.49-2.64,6.92,6.92,0,0,0-2.43-1.71,8.78,8.78,0,0,0-3.36-.61,7.54,7.54,0,0,0-3.21.66A8.34,8.34,0,0,0,421.23,29a11,11,0,0,0-1.85,2.59,18,18,0,0,0-1.27,3.08,17.75,17.75,0,0,0-.72,3.23,22.52,22.52,0,0,0-.22,3.07v.5A4.5,4.5,0,0,0,417.25,41.93Z" transform="translate(0 0)"/><path class="cls-1" d="M477.59,26.08l-6,9.89a30,30,0,0,0-1-2.83,15.79,15.79,0,0,0-1.48-2.93,8.81,8.81,0,0,0-2.1-2.29,4.49,4.49,0,0,0-2.82-.93,4.33,4.33,0,0,0-2.56.76,6.48,6.48,0,0,0-1.83,2,11.4,11.4,0,0,0-1.24,2.73,21.51,21.51,0,0,0-.76,3.07q-.26,1.5-.36,3c-.07,1-.09,1.77-.09,2.46V59.18H446.78V22.88h4.08l4.3,8.44a25,25,0,0,1,2-3.75,13.79,13.79,0,0,1,2.6-3,11.74,11.74,0,0,1,3.34-1.93,12.36,12.36,0,0,1,4.22-.68,19.18,19.18,0,0,1,2.73.2,15.36,15.36,0,0,1,3,.69,12.11,12.11,0,0,1,2.67,1.27A6,6,0,0,1,477.59,26.08Z" transform="translate(0 0)"/><path class="cls-1" d="M489.94,14.13a5.47,5.47,0,0,1-.46,2.26,5.76,5.76,0,0,1-1.23,1.85,5.84,5.84,0,0,1-4.11,1.69,5.62,5.62,0,0,1-2.25-.45,5.79,5.79,0,0,1-3.07-7.59,5.74,5.74,0,0,1,1.24-1.84,6.17,6.17,0,0,1,1.83-1.24,5.62,5.62,0,0,1,2.25-.45,5.82,5.82,0,0,1,2.3.41,5.69,5.69,0,0,1,3.09,3.08A5.4,5.4,0,0,1,489.94,14.13Zm-.47,45H478.83V22.91h10.61Z" transform="translate(0 0)"/><path class="cls-1" d="M455.44,70.51a1.55,1.55,0,0,1-.11.56,1.44,1.44,0,0,1-.31.46,1.44,1.44,0,0,1-2,0,1.43,1.43,0,0,1,0-2,1.44,1.44,0,0,1,2,0,1.44,1.44,0,0,1,.31.46A1.46,1.46,0,0,1,455.44,70.51Z" transform="translate(0 0)"/><path class="cls-1" d="M465,64.87l-1.14.46a2.43,2.43,0,0,0-2.47-1.79,2.29,2.29,0,0,0-.86.15,2,2,0,0,0-.67.42,3,3,0,0,0-.49.62,4.13,4.13,0,0,0-.32.75,5.84,5.84,0,0,0-.18.83,5.69,5.69,0,0,0-.06.83q0,.44,0,.87a6.21,6.21,0,0,0,.16.84,4.89,4.89,0,0,0,.3.75,2.2,2.2,0,0,0,.48.61,2.06,2.06,0,0,0,.68.41,2.56,2.56,0,0,0,.91.15,2.44,2.44,0,0,0,.8-.13,2.49,2.49,0,0,0,.69-.35,2.7,2.7,0,0,0,.65-.52,2.41,2.41,0,0,0,.39-.7l1.15.43a3.28,3.28,0,0,1-.69,1.07,3.82,3.82,0,0,1-1,.74,4.47,4.47,0,0,1-1.17.44,5.84,5.84,0,0,1-1.25.14,5.43,5.43,0,0,1-1.91-.35,4.47,4.47,0,0,1-2.51-2.48,5.32,5.32,0,0,1,0-3.81,4.49,4.49,0,0,1,2.49-2.48,5.22,5.22,0,0,1,1.92-.34,6.21,6.21,0,0,1,1.29.14,4.66,4.66,0,0,1,1.16.45,3.93,3.93,0,0,1,1,.77A3.5,3.5,0,0,1,465,64.87Z" transform="translate(0 0)"/><path class="cls-1" d="M475.3,67.14a4.53,4.53,0,0,1-.19,1.32,5,5,0,0,1-.52,1.15,4.57,4.57,0,0,1-.81.94,4.66,4.66,0,0,1-1,.71,5.1,5.1,0,0,1-1.2.45,5.44,5.44,0,0,1-2.62,0,5.1,5.1,0,0,1-1.2-.45,4.66,4.66,0,0,1-1-.71,4.5,4.5,0,0,1-1.33-2.09,4.93,4.93,0,0,1,0-2.64,4.45,4.45,0,0,1,.53-1.15,4.57,4.57,0,0,1,.8-1,5,5,0,0,1,1-.71,5.56,5.56,0,0,1,1.2-.44,5.44,5.44,0,0,1,4.85,1.15,4.33,4.33,0,0,1,.81,1,5,5,0,0,1,.52,1.15A4.51,4.51,0,0,1,475.3,67.14Zm-2.7,0c0-.27,0-.53,0-.8a4.54,4.54,0,0,0-.14-.82,4.26,4.26,0,0,0-.28-.78,2.62,2.62,0,0,0-.43-.65,2.52,2.52,0,0,0-.62-.45,2,2,0,0,0-.84-.16,1.74,1.74,0,0,0-.81.17,2,2,0,0,0-.62.46,2.62,2.62,0,0,0-.44.66,5.16,5.16,0,0,0-.28.78,6.18,6.18,0,0,0,0,3.18,5.16,5.16,0,0,0,.28.78,2.62,2.62,0,0,0,.44.66,2.33,2.33,0,0,0,.62.46,1.87,1.87,0,0,0,.81.17,2,2,0,0,0,.83-.17,1.87,1.87,0,0,0,.62-.45,2.4,2.4,0,0,0,.44-.65,6.81,6.81,0,0,0,.26-.76,4.54,4.54,0,0,0,.14-.82A7.3,7.3,0,0,0,472.6,67.14Z" transform="translate(0 0)"/><path class="cls-1" d="M490.18,66.4a9,9,0,0,1-.22,2,11.86,11.86,0,0,1-.62,2,11.14,11.14,0,0,1-.95,1.81,7.39,7.39,0,0,1-1.24,1.49l-1-.55a5.34,5.34,0,0,0,.42-.91c.13-.34.24-.7.35-1.08s.19-.76.27-1.16.14-.79.2-1.19.09-.77.12-1.14,0-.72,0-1v-.59a2.42,2.42,0,0,0-.06-.65,6,6,0,0,0-.15-.61,2.07,2.07,0,0,0-.28-.53,1.58,1.58,0,0,0-.44-.37,1.37,1.37,0,0,0-.63-.13,1,1,0,0,0-.62.19,1.71,1.71,0,0,0-.43.5,2.6,2.6,0,0,0-.29.69,6.57,6.57,0,0,0-.16.77c0,.26-.06.5-.08.74a6,6,0,0,0,0,.6v4.54h-2.64V66a8,8,0,0,0-.1-.84,2.53,2.53,0,0,0-.24-.75,1.61,1.61,0,0,0-.43-.54,1.12,1.12,0,0,0-.69-.2.92.92,0,0,0-.6.19,1.51,1.51,0,0,0-.39.51,2.57,2.57,0,0,0-.26.7,7.69,7.69,0,0,0-.18,1.51v5.12h-2.66V62.63h1l1,2.11a3.66,3.66,0,0,1,1-1.72,2.81,2.81,0,0,1,1.89-.61,3.27,3.27,0,0,1,1.76.44,2.94,2.94,0,0,1,1.1,1.43,4.92,4.92,0,0,1,.5-.78,3.47,3.47,0,0,1,.62-.59,2.68,2.68,0,0,1,.76-.37,2.79,2.79,0,0,1,.91-.13,3.91,3.91,0,0,1,1.59.3,2.84,2.84,0,0,1,1.07.84,3.49,3.49,0,0,1,.6,1.26A6.54,6.54,0,0,1,490.18,66.4Z" transform="translate(0 0)"/><line class="cls-2" x1="278.93" y1="69.92" x2="449.76" y2="69.92"/></svg>